<svg width="80" height="60" viewBox="0 0 80 60" fill="none" xmlns="http://www.w3.org/2000/svg">
<path fill-rule="evenodd" clip-rule="evenodd" d="M5 2H75C76.6572 2 78 3.34326 78 5V42H2V5C2 3.34326 3.34277 2 5 2ZM80 44V42V5C80 2.23853 77.7617 0 75 0H5C2.23828 0 0 2.23853 0 5V42V44V45C0 47.7615 2.23828 50 5 50H39V58H26C25.7334 58 25.4912 58.1042 25.3125 58.2742C25.207 58.3735 25.124 58.4956 25.0693 58.6326C25.0244 58.7463 25 58.8704 25 59C25 59.5522 25.4473 60 26 60H54C54.2246 60 54.4326 59.9258 54.5996 59.8005C54.8428 59.6182 55 59.3274 55 59C55 58.4478 54.5527 58 54 58H41V50H75C77.7617 50 80 47.7615 80 45V44ZM2 45V44H78V45C78 46.6567 76.6572 48 75 48H5C3.34277 48 2 46.6567 2 45ZM40 47C40.5527 47 41 46.5522 41 46C41 45.6377 40.8076 45.3203 40.5195 45.145C40.3682 45.053 40.1904 45 40 45C39.4473 45 39 45.4478 39 46C39 46.5522 39.4473 47 40 47Z" fill="#13A3A3"/>
</svg>
