<svg width="34" height="60" viewBox="0 0 34 60" fill="none" xmlns="http://www.w3.org/2000/svg">
<path d="M29.595 0H4.405C1.977 0 0 1.977 0 4.405V55.594C0 58.023 1.977 60 4.405 60H29.594C32.023 60 34 58.023 34 55.595V4.405C34 1.977 32.023 0 29.595 0ZM2 8H32V46H2V8ZM4.405 2H29.594C30.921 2 32 3.079 32 4.405V6H2V4.405C2 3.079 3.079 2 4.405 2ZM29.595 58H4.405C3.079 58 2 56.921 2 55.595V48H32V55.595C32 56.921 30.921 58 29.595 58Z" fill="#13A3A3"/>
<path d="M17 49C14.794 49 13 50.794 13 53C13 55.206 14.794 57 17 57C19.206 57 21 55.206 21 53C21 50.794 19.206 49 17 49ZM17 55C15.897 55 15 54.103 15 53C15 51.897 15.897 51 17 51C18.103 51 19 51.897 19 53C19 54.103 18.103 55 17 55Z" fill="#13A3A3"/>
<path d="M13 5H17C17.553 5 18 4.553 18 4C18 3.447 17.553 3 17 3H13C12.447 3 12 3.447 12 4C12 4.553 12.447 5 13 5Z" fill="#13A3A3"/>
<circle cx="20" cy="4" r="1" fill="#13A3A3"/>
<path fill-rule="evenodd" clip-rule="evenodd" d="M29 2H5C3.34315 2 2 3.34315 2 5V55C2 56.6569 3.34315 58 5 58H29C30.6569 58 32 56.6569 32 55V5C32 3.34315 30.6569 2 29 2ZM5 0C2.23858 0 0 2.23858 0 5V55C0 57.7614 2.23858 60 5 60H29C31.7614 60 34 57.7614 34 55V5C34 2.23858 31.7614 0 29 0H5Z" fill="#13A3A3"/>
<rect x="2" y="6.05566" width="30" height="2" fill="#13A3A3"/>
<rect x="2" y="51.9932" width="30" height="2" fill="#13A3A3"/>
<circle cx="17" cy="56.0117" r="1" fill="#13A3A3"/>
</svg>
